<svg width="20" height="20" viewBox="0 0 17.14 16.75" fill="none" xmlns="http://www.w3.org/2000/svg">
<path d="M15.5312 6.71458C16.8646 6.71458 17.1396 6.98958 17.1396 8.32292V8.43125C17.1396 9.76458 16.8646 10.0396 15.5312 10.0396H2.55625V6.70625L15.5312 6.71458ZM8.74792 15.9896L8.68958 16.0479C7.74792 16.9896 7.35625 16.9896 6.41458 16.0479L1.08125 10.7396C-0.360417 9.26458 -0.360417 7.48958 1.08125 6.01458L6.41458 0.70625C7.35625 -0.235417 7.74792 -0.235417 8.68958 0.70625L8.74792 0.764583C9.68958 1.70625 9.68958 2.09792 8.74792 3.03958L3.43958 8.37292L8.74792 13.7062C9.68958 14.6479 9.68958 15.0396 8.74792 15.9813V15.9896Z" fill="white"/>
</svg>
