<svg preserveAspectRatio="none" width="100%" height="100%" overflow="visible" style="display: block;" viewBox="0 0 375 375" fill="none" xmlns="http://www.w3.org/2000/svg">
<g id="Squares">
<path id="Vector" d="M375 0H0V375H375V0Z" fill="var(--fill-0, #779556)"/>
<path id="Vector_2" d="M93.75 46.875H46.875V93.75H93.75V46.875Z" fill="var(--fill-0, #EDDA93)"/>
<path id="Vector_3" d="M187.5 46.875H140.625V93.75H187.5V46.875Z" fill="var(--fill-0, #EBECD0)"/>
<path id="Vector_4" d="M281.25 46.875H234.375V93.75H281.25V46.875Z" fill="var(--fill-0, #EBECD0)"/>
<path id="Vector_5" d="M375 46.875H328.125V93.75H375V46.875Z" fill="var(--fill-0, #EBECD0)"/>
<path id="Vector_6" d="M46.875 0H0V46.875H46.875V0Z" fill="var(--fill-0, #EDDA93)"/>
<path id="Vector_7" d="M140.625 0H93.75V46.875H140.625V0Z" fill="var(--fill-0, #EBECD0)"/>
<path id="Vector_8" d="M234.375 0H187.5V46.875H234.375V0Z" fill="var(--fill-0, #EBECD0)"/>
<path id="Vector_9" d="M328.125 0H281.25V46.875H328.125V0Z" fill="var(--fill-0, #EBECD0)"/>
<path id="Vector_10" d="M93.75 140.625H46.875V187.5H93.75V140.625Z" fill="var(--fill-0, #EBECD0)"/>
<path id="Vector_11" d="M187.5 140.625H140.625V187.5H187.5V140.625Z" fill="var(--fill-0, #EBECD0)"/>
<path id="Vector_12" d="M281.25 140.625H234.375V187.5H281.25V140.625Z" fill="var(--fill-0, #EBECD0)"/>
<path id="Vector_13" d="M375 140.625H328.125V187.5H375V140.625Z" fill="var(--fill-0, #EBECD0)"/>
<path id="Vector_14" d="M46.875 93.75H0V140.625H46.875V93.75Z" fill="var(--fill-0, #EBECD0)"/>
<path id="Vector_15" d="M140.625 93.75H93.75V140.625H140.625V93.75Z" fill="var(--fill-0, #EBECD0)"/>
<path id="Vector_16" d="M234.375 93.75H187.5V140.625H234.375V93.75Z" fill="var(--fill-0, #EBECD0)"/>
<path id="Vector_17" d="M328.125 93.75H281.25V140.625H328.125V93.75Z" fill="var(--fill-0, #EBECD0)"/>
<path id="Vector_18" d="M93.75 234.375H46.875V281.25H93.75V234.375Z" fill="var(--fill-0, #EBECD0)"/>
<path id="Vector_19" d="M187.5 234.375H140.625V281.25H187.5V234.375Z" fill="var(--fill-0, #EBECD0)"/>
<path id="Vector_20" d="M281.25 234.375H234.375V281.25H281.25V234.375Z" fill="var(--fill-0, #EBECD0)"/>
<path id="Vector_21" d="M375 234.375H328.125V281.25H375V234.375Z" fill="var(--fill-0, #EBECD0)"/>
<path id="Vector_22" d="M46.875 187.5H0V234.375H46.875V187.5Z" fill="var(--fill-0, #EBECD0)"/>
<path id="Vector_23" d="M140.625 187.5H93.75V234.375H140.625V187.5Z" fill="var(--fill-0, #EBECD0)"/>
<path id="Vector_24" d="M234.375 187.5H187.5V234.375H234.375V187.5Z" fill="var(--fill-0, #EBECD0)"/>
<path id="Vector_25" d="M328.125 187.5H281.25V234.375H328.125V187.5Z" fill="var(--fill-0, #EBECD0)"/>
<path id="Vector_26" d="M93.75 328.125H46.875V375H93.75V328.125Z" fill="var(--fill-0, #EBECD0)"/>
<path id="Vector_27" d="M187.5 328.125H140.625V375H187.5V328.125Z" fill="var(--fill-0, #EBECD0)"/>
<path id="Vector_28" d="M281.25 328.125H234.375V375H281.25V328.125Z" fill="var(--fill-0, #EBECD0)"/>
<path id="Vector_29" d="M375 328.125H328.125V375H375V328.125Z" fill="var(--fill-0, #EBECD0)"/>
<path id="Vector_30" d="M46.875 281.25H0V328.125H46.875V281.25Z" fill="var(--fill-0, #EBECD0)"/>
<path id="Vector_31" d="M140.625 281.25H93.75V328.125H140.625V281.25Z" fill="var(--fill-0, #EBECD0)"/>
<path id="Vector_32" d="M234.375 281.25H187.5V328.125H234.375V281.25Z" fill="var(--fill-0, #EBECD0)"/>
<path id="Vector_33" d="M328.125 281.25H281.25V328.125H328.125V281.25Z" fill="var(--fill-0, #EBECD0)"/>
</g>
</svg>
