<svg width="24" height="24" viewBox="0 0 24 24" fill="none" xmlns="http://www.w3.org/2000/svg">
<rect width="24" height="24" rx="12" fill="#E3AA24"/>
<path d="M9.51123 20.2681H7.00521C6.76424 20.2681 6.59557 20.0994 6.59557 19.8343V17.4006C6.59557 17.1596 6.76424 16.991 7.00521 16.991H9.53533C9.77629 16.991 9.94497 17.1596 9.94497 17.4006V19.8343C9.94497 20.0994 9.77629 20.2681 9.51123 20.2681ZM17.5112 20.2681H14.8847C14.6438 20.2681 14.451 20.0512 14.451 19.8102V17.2801C14.451 17.0873 14.5474 16.8464 14.8847 16.8464H17.5112C17.7281 16.8464 17.9932 16.9187 17.9932 17.2801V19.8102C17.9932 20.003 17.7281 20.2681 17.5112 20.2681ZM9.43894 15.2078H7.12569C6.90882 15.2078 6.71605 15.1355 6.71605 14.7982V14.3163C6.71605 13.0391 7.43894 11.9789 7.92087 11.5934L8.59557 11.0392C8.88473 10.7741 9.19798 10.4849 9.46304 10.1958C9.67991 9.93072 9.80039 9.61746 9.80039 9.28011C9.80039 8.55722 9.17388 8.14758 8.45099 8.14758C8.04135 8.14758 7.34256 8.29216 6.71605 8.82228C6.52328 9.01505 6.35461 8.99096 6.08955 8.7259L4.76425 7.11144C4.59557 6.91867 4.66786 6.7259 4.81244 6.58132C5.84858 5.54517 7.43894 5.08734 8.61967 5.08734C11.1498 5.08734 13.0775 6.7259 13.0775 9.03915C13.0775 10.7018 12.4992 11.3042 11.0775 12.7259L10.21 13.5693C9.96906 13.8343 9.84858 14.1717 9.84858 14.509V14.7982C9.84858 15.0632 9.704 15.2078 9.43894 15.2078ZM17.3908 14.991H15.0052C14.7401 14.991 14.5474 14.8464 14.5474 14.5572L14.3546 5.52108C14.3546 5.30421 14.451 5.08734 14.7883 5.08734H17.6076C17.8727 5.08734 18.0655 5.25602 18.0655 5.52108L17.8004 14.5572C17.8004 14.7741 17.6076 14.991 17.3908 14.991Z" fill="#CF8D1B"/>
<path d="M9.51123 19.6807H7.00521C6.76424 19.6807 6.59557 19.5121 6.59557 19.247V16.8133C6.59557 16.5723 6.76424 16.4036 7.00521 16.4036H9.53533C9.77629 16.4036 9.94497 16.5723 9.94497 16.8133V19.247C9.94497 19.5121 9.77629 19.6807 9.51123 19.6807ZM17.5112 19.6807H14.8847C14.6438 19.6807 14.451 19.4639 14.451 19.2229V16.6928C14.451 16.5 14.5474 16.2591 14.8847 16.2591H17.5112C17.7281 16.2591 17.9932 16.3313 17.9932 16.6928V19.2229C17.9932 19.4157 17.7281 19.6807 17.5112 19.6807ZM9.43894 14.6205H7.12569C6.90882 14.6205 6.71605 14.5482 6.71605 14.2109V13.7289C6.71605 12.4518 7.43894 11.3916 7.92087 11.006L8.59557 10.4518C8.88473 10.1868 9.19798 9.89761 9.46304 9.60846C9.67991 9.3434 9.80039 9.03014 9.80039 8.69279C9.80039 7.9699 9.17388 7.56026 8.45099 7.56026C8.04135 7.56026 7.34256 7.70484 6.71605 8.23496C6.52328 8.42773 6.35461 8.40364 6.08955 8.13858L4.76425 6.52412C4.59557 6.33135 4.66786 6.13858 4.81244 5.994C5.84858 4.95785 7.43894 4.50002 8.61967 4.50002C11.1498 4.50002 13.0775 6.13858 13.0775 8.45183C13.0775 10.1145 12.4992 10.7169 11.0775 12.1386L10.21 12.9819C9.96906 13.247 9.84858 13.5844 9.84858 13.9217V14.2109C9.84858 14.4759 9.704 14.6205 9.43894 14.6205ZM17.3908 14.4036H15.0052C14.7401 14.4036 14.5474 14.2591 14.5474 13.9699L14.3546 4.93376C14.3546 4.71689 14.451 4.50002 14.7883 4.50002H17.6076C17.8727 4.50002 18.0655 4.6687 18.0655 4.93376L17.8004 13.9699C17.8004 14.1868 17.6076 14.4036 17.3908 14.4036Z" fill="white"/>
</svg>
