<svg width="40" height="40" viewBox="0 0 40 40" fill="none" xmlns="http://www.w3.org/2000/svg">
<path d="M4.85511 35.1694C4.53627 35.1694 4.22969 35.0468 3.99669 34.8138C3.59201 34.4091 3.51843 33.7837 3.82501 33.2932L5.98331 29.8841C6.03237 29.8105 6.09368 29.7369 6.155 29.6756L22.5876 13.2553C22.8206 13.0223 23.1271 12.8997 23.446 12.8997C23.5195 12.8997 23.5809 12.8997 23.6544 12.9119C24.0469 12.9855 24.378 13.2308 24.5496 13.5987C24.7581 13.9665 24.9666 14.1628 25.2486 14.3099C25.5797 14.4939 25.8127 14.825 25.8618 15.2051C25.9109 15.5853 25.7882 15.9654 25.5184 16.2352L9.12267 32.631C9.06135 32.6923 9.00004 32.7536 8.92646 32.7904L5.54184 34.9732C5.33337 35.1081 5.11263 35.1694 4.87964 35.1694H4.85511Z" fill="#4A4743"/>
<path d="M23.5563 14.3958C23.495 14.2977 23.4705 14.2118 23.4214 14.126L6.98887 30.5463L4.83057 33.9554L8.21518 31.7726L24.6109 15.3768C24.194 15.1438 23.8261 14.825 23.5441 14.3958H23.5563Z" fill="#BEBDB9"/>
<path d="M16.125 17.5474C17.3636 18.1851 18.3446 19.068 19.2644 20C20.1473 20.9688 20.9567 22.0112 21.5085 23.2865C20.2577 22.6611 19.2889 21.7782 18.3691 20.8339C17.4862 19.8529 16.6768 18.8228 16.125 17.5474Z" fill="#666564"/>
<path d="M3.11383 3.30992C1.85073 4.57301 1.85073 6.63321 3.11383 7.89631C3.69019 8.47268 4.47503 8.81605 5.2844 8.84057C5.18629 9.77257 5.03913 11.6733 5.24761 13.942C5.6155 18.1483 7.01349 21.5819 9.28217 23.8506C12.9734 27.5418 16.873 28.0936 19.154 27.8852C18.7738 28.3389 18.4304 28.7681 18.0993 29.1851C15.1194 33.0357 16.9589 34.8629 19.0926 36.9721L19.387 37.2664L19.7426 37.6221L20.0982 37.2664L37.4137 19.9509L37.7693 19.5953L37.4137 19.2397L37.1194 18.9454C34.9979 16.8116 33.1707 14.9844 29.3323 17.9521C28.9154 18.2832 28.4739 18.6265 28.0324 19.0067C28.2287 16.7257 27.6768 12.8261 23.9979 9.13489C20.368 5.50501 15.2298 5.14938 12.164 5.16164H11.5141L11.6735 5.78706C11.8574 6.49832 12.679 9.91973 17.9644 15.3155L15.5241 17.7558C7.61439 9.71125 7.71249 3.5797 7.71249 3.51839V3.28539L7.54081 3.13823C6.26544 2.03455 4.31561 2.10813 3.12609 3.29765L3.11383 3.30992Z" fill="#E8E6E1"/>
<path d="M5.86041 8.31328C5.17368 8.57081 4.43789 17.0446 7.63856 21.7659C10.6185 26.1684 12.924 25.9108 12.8136 25.9599C12.7891 25.9354 5.18594 17.3389 6.55941 8.05576C6.55941 8.05576 6.26509 8.17839 5.87267 8.32554L5.86041 8.31328Z" fill="white"/>
<path d="M3.77587 3.32219C3.07688 4.15608 2.8684 6.59644 4.30319 8.25196C4.30319 8.25196 2.25525 8.31327 2.09583 6.02007C1.9732 4.2174 3.77587 3.32219 3.77587 3.32219Z" fill="white"/>
<path d="M24.8193 24.6968C32.4592 17.0569 34.1025 17.1059 34.1025 17.1059L34.2128 16.9956C32.0668 15.5362 27.8606 19.3378 27.8606 19.3378L19.4971 27.7012C19.4971 27.7012 15.4994 31.9933 17.1303 34.0781L17.2407 33.9677C17.2407 33.9677 17.1917 32.3367 24.8316 24.6845L24.8193 24.6968Z" fill="white"/>
<path d="M9.62552 9.80936C9.04915 8.58305 7.39364 2.96655 7.39364 2.96655L4.7816 2.3166L4.27881 2.83165C7.90869 3.19955 7.65116 12.5808 11.0971 16.039C12.1027 17.0446 14.3959 18.8473 15.4995 18.4794C15.4995 18.4794 10.8028 12.3478 9.61326 9.80936H9.62552Z" fill="#B3ACA8"/>
<path d="M15.2788 5.57861C29.0871 11.33 23.2253 23.1271 23.2253 23.1271L28.0202 19.019C27.9098 19.7793 29.9332 15.2419 23.5196 8.84059C19.8039 5.12487 15.2788 5.57861 15.2788 5.57861Z" fill="#B3ACA8"/>
<path d="M5.40689 2.85619C6.04457 2.85619 6.68225 3.07692 7.1973 3.51839C7.1973 3.51839 7.01335 9.99331 15.4994 18.4794L18.651 15.3278C13.3411 10.0178 12.3723 6.5719 12.1393 5.66444C12.1639 5.66444 12.2006 5.66444 12.2252 5.66444C15.573 5.66444 20.2575 6.1427 23.6176 9.49052C28.2776 14.1505 27.7135 19.0189 27.2475 20.3311C28.0568 19.6076 28.8539 18.9454 29.6265 18.3445C30.9754 17.3021 32.0178 16.8852 32.9253 16.8852C34.4704 16.8852 35.5864 18.1237 37.0457 19.5831L19.7302 36.8985C17.4002 34.5686 15.6711 33.1338 18.4916 29.4794C19.0925 28.7068 19.7547 27.9097 20.4782 27.1003C20.0613 27.2475 19.301 27.4069 18.2954 27.4069C16.1126 27.4069 12.8261 26.6589 9.63766 23.4705C4.29094 18.1483 5.86062 8.31326 5.86062 8.31326C5.71346 8.33779 5.56631 8.35005 5.40689 8.35005C4.70789 8.35005 3.99663 8.08027 3.46932 7.54069C2.40243 6.4738 2.40243 4.73244 3.46932 3.65329C4.00889 3.11371 4.70789 2.84392 5.40689 2.84392M5.40689 1.83835C4.40131 1.83835 3.46932 2.23077 2.75806 2.94203C1.29875 4.40134 1.29875 6.78038 2.75806 8.23969C3.3099 8.79153 3.98437 9.14716 4.73242 9.28205C4.48715 12.1271 4.32773 19.6076 8.91413 24.194C12.4459 27.7258 16.0635 28.3757 18.0501 28.4125C17.9275 28.5719 17.8049 28.7191 17.6945 28.8662C14.4448 33.0602 16.5295 35.1327 18.7246 37.3155L19.0189 37.5975L19.7302 38.3088L20.4414 37.5975L37.7569 20.282L38.4682 19.5708L37.7569 18.8595L37.4749 18.5652C36.0892 17.1795 34.7893 15.8551 32.9253 15.8551C31.7358 15.8551 30.4972 16.3824 29.0134 17.5351C28.8539 17.6577 28.7068 17.7804 28.5474 17.903C28.486 15.4749 27.5908 12.029 24.3288 8.767C21.5574 5.99554 17.5964 4.6466 12.2252 4.6466H10.9253L11.1705 5.89743C11.8818 8.64437 13.9788 11.8818 17.2408 15.3032L15.5117 17.0323C8.20287 9.39242 8.20287 3.60423 8.21514 3.54292V3.07692L7.87177 2.75808C7.1973 2.16945 6.32662 1.85061 5.41915 1.85061L5.40689 1.83835Z" fill="#4A4743"/>
<path d="M23.7648 23.6299C25.359 22.0357 26.8551 20.6377 28.2899 19.4359L27.9465 18.4181C26.4504 19.6566 24.8439 21.1405 23.0535 22.9186C21.2508 24.7213 19.7547 26.3523 18.5039 27.8606L19.4114 28.3389C20.6499 26.8551 22.1093 25.2854 23.7648 23.6299Z" fill="#666564"/>
<path d="M19.816 21.4593C19.5094 21.4593 19.1905 21.3367 18.9575 21.1037L17.719 19.8774C17.486 19.6444 17.3511 19.3378 17.3511 19.0067C17.3511 18.6756 17.486 18.369 17.719 18.136L31.4659 4.6466C31.6989 4.4136 32.0177 4.29097 32.3243 4.29097C32.6309 4.29097 32.9497 4.4136 33.1827 4.6466L34.4213 5.87291C34.6543 6.10591 34.7892 6.41249 34.7892 6.74359C34.7892 7.07469 34.6543 7.38127 34.4213 7.61427L20.6866 21.1037C20.4536 21.3367 20.1348 21.4593 19.8282 21.4593H19.816Z" fill="#4A4743"/>
<path d="M18.5776 19.0067L19.8162 20.233L33.5509 6.74358L32.3123 5.51727L18.5776 19.0067Z" fill="#BEBDB9"/>
<path d="M35.697 11.8328C33.3793 14.175 29.6022 14.1995 27.2477 11.8818C24.9055 9.5641 24.8809 5.78706 27.1987 3.44481C29.5164 1.10256 33.2934 1.07803 35.6479 3.39576C37.9902 5.71348 38.0147 9.49052 35.697 11.845V11.8328Z" fill="#4A4743"/>
<path d="M31.4415 12.3846C30.1784 12.3846 29.0012 11.8941 28.106 11.0111C26.242 9.17168 26.2297 6.15495 28.0692 4.29096C28.9644 3.38349 30.1662 2.88071 31.4415 2.88071C32.7169 2.88071 33.8819 3.37123 34.7771 4.25417C35.6846 5.14938 36.1874 6.3389 36.1874 7.602C36.1874 8.8651 35.7091 10.0669 34.8139 10.9744C33.9187 11.8818 32.7169 12.3846 31.4293 12.3846H31.4415Z" fill="#81B64C"/>
<path d="M34.8261 9.28206C33.9309 10.1895 32.7292 10.6923 31.4415 10.6923C30.1539 10.6923 29.0012 10.2018 28.106 9.31885C27.3824 8.59533 26.941 7.70012 26.7815 6.76813C26.4995 8.26423 26.9532 9.87069 28.106 11.0234C29.0012 11.9064 30.1907 12.3969 31.4415 12.3969C32.6924 12.3969 33.9187 11.8941 34.8261 10.9866C35.7213 10.0792 36.1996 8.88964 36.1996 7.61428C36.1996 7.34449 36.1628 7.0747 36.1138 6.81718C35.9421 7.74918 35.5006 8.59533 34.8261 9.28206Z" fill="#5D9948"/>
<path d="M31.9195 7.89633C31.0856 8.74248 29.7121 8.75475 28.866 7.92085C28.0198 7.08696 28.0076 5.7135 28.8415 4.86734C29.6754 4.02119 31.0488 4.00893 31.895 4.85508C32.7411 5.70123 32.7534 7.06244 31.9072 7.90859L31.9195 7.89633Z" fill="#B2E068"/>
</svg>
