<svg width="40" height="40" viewBox="0 0 40 40" fill="none" xmlns="http://www.w3.org/2000/svg">
<g clip-path="url(#clip0_3540_34494)">
<path d="M25.0235 2.17999C22.9702 2.17999 21.2957 3.85444 21.2957 5.90777C21.2957 6.99555 21.8213 8.04666 22.6768 8.69444L19.7802 17.0667L16.8835 8.69444C17.7391 8.04666 18.2646 6.99555 18.2646 5.90777C18.2646 3.85444 16.5902 2.17999 14.5368 2.17999C12.4835 2.17999 10.8091 3.81777 10.8091 5.90777C10.8091 7.47221 11.7746 8.81666 13.1557 9.26888L12.6913 19.1444L8.68238 14.8667C8.92683 14.4755 9.25683 13.8155 9.25683 13.0944C9.25683 11.2 7.61905 9.53777 5.74905 9.53777C4.79572 9.53777 3.90349 9.90444 3.23127 10.5767C2.55905 11.2489 2.19238 12.1411 2.19238 13.0944C2.19238 14.7689 3.58572 16.37 5.13794 16.5778L11.0168 30.7189C6.82461 31.5011 6.83683 34.0189 6.83683 36.9155V37.3311V37.8444H32.7235V36.9278C32.7235 34.0311 32.7357 31.5133 28.5435 30.7311L34.4224 16.59C35.9868 16.3822 37.3802 14.7811 37.3802 13.1067C37.3802 11.1511 35.7791 9.54999 33.8235 9.54999C31.8679 9.54999 30.3157 11.2122 30.3157 13.1067C30.3157 13.8278 30.6457 14.4878 30.8902 14.8789L26.8691 19.1567L26.4046 9.2811C27.7735 8.82888 28.7513 7.45999 28.7513 5.93221C28.7513 3.84221 27.1135 2.20444 25.0235 2.20444V2.17999Z" fill="#E8E6E1"/>
<path d="M6.48215 10.0022C5.25993 10.1122 3.36549 11.4933 2.93771 14.2922C2.91326 14.4878 1.54438 13.0211 3.35326 10.9189C4.77104 9.26888 6.49438 9.98999 6.49438 9.98999L6.48215 10.0022Z" fill="white"/>
<path d="M34.6302 10.0022C33.4079 10.1122 31.5135 11.4933 31.0857 14.2922C31.0491 14.4878 29.6924 13.0211 31.5013 10.9189C32.9313 9.26888 34.6424 9.98999 34.6424 9.98999L34.6302 10.0022Z" fill="white"/>
<path d="M15.1845 2.71778C13.8768 2.85222 11.8112 4.45333 11.6156 7.68C11.6156 7.68 10.2712 5.79778 12.0556 3.68333C13.4612 2.00889 15.1845 2.71778 15.1845 2.71778Z" fill="white"/>
<path d="M25.6098 2.71778C24.3021 2.85222 22.2365 4.45333 22.0409 7.68C22.0409 7.68 20.6965 5.79778 22.4809 3.68333C23.8865 2.00889 25.6098 2.71778 25.6098 2.71778Z" fill="white"/>
<path d="M19.9269 32.1978C30.9024 32.1978 32.0513 33.4078 32.0513 33.4078H32.198C31.7091 30.8167 25.9524 30.5233 25.9524 30.5233H13.938C13.938 30.5233 7.98576 30.7311 7.65576 33.4078H7.80243C7.80243 33.4078 8.93909 32.1978 19.9269 32.1978Z" fill="white"/>
<path d="M7.04429 10.2833C8.40096 12.0189 6.06652 13.5467 7.36207 14.9522L13.2776 20.4278L8.84096 14.5489C8.84096 14.5489 9.40318 13.1067 9.04874 12.0556C8.25429 9.68444 7.03207 10.2711 7.03207 10.2711L7.04429 10.2833Z" fill="#B3ACA8"/>
<path d="M26.4045 25.7078C22.3956 30.0467 18.4111 29.9122 18.4111 29.9122L28.5434 30.7067L34.4834 16.6633C34.4834 16.6633 35.8645 16.5045 36.8911 14.7933C38.4189 12.2633 35.4856 10.4422 35.4856 10.4422C36.4022 11.5056 36.2678 13.29 35.4856 14.0111C34.74 14.7078 33.4811 14.8545 33.0167 15.9178C33.0167 15.9178 30.23 21.5767 26.4045 25.72V25.7078Z" fill="#B3ACA8"/>
<path d="M26.5754 2.88889C28.5188 5.57777 24.8154 6.44555 25.0476 8.90222L26.5143 20.3789V9.40333C26.5143 9.40333 29.0932 7.85111 28.861 5.98111C28.5065 3.06 26.5876 2.90111 26.5876 2.90111L26.5754 2.88889Z" fill="#B3ACA8"/>
<path d="M15.3187 8.53555L19.8654 18.6433L16.9687 8.80444C16.9687 8.80444 18.0809 7.19111 18.0809 5.78555C18.0809 3.21888 15.9298 2.71777 15.9298 2.71777C18.0076 5.50444 14.512 6.10333 15.3309 8.53555H15.3187Z" fill="#B3ACA8"/>
<path d="M19.7799 30.67C22.7866 30.67 25.451 30.7922 27.7733 31.0978C28.2622 31.1589 28.7022 31.2445 29.0933 31.3422L29.2644 30.34C28.861 30.2422 28.3966 30.1567 27.9077 30.0956C25.6344 29.8022 22.9699 29.6678 19.7799 29.6678C16.5899 29.6678 13.9377 29.8022 11.6522 30.0956C11.1266 30.1567 10.6499 30.2545 10.2344 30.3645L10.4422 31.3667C10.8333 31.2689 11.2855 31.1833 11.7866 31.1222C14.1088 30.8289 16.7733 30.6945 19.7799 30.6945V30.67Z" fill="#383532"/>
<path d="M25.0232 2.68112C26.8443 2.68112 28.2376 4.07445 28.2376 5.89556C28.2376 7.42334 27.1498 8.63334 25.8665 8.85334L26.4165 20.3422L31.5376 14.8789C31.5376 14.8789 30.8165 14.0111 30.8165 13.0578C30.8165 11.3711 32.2954 10.0144 33.8232 10.0144C35.5098 10.0144 36.8665 11.3711 36.8665 13.0578C36.8665 14.6222 35.4732 16.0644 34.0798 16.0644L27.8343 31.0856C32.4298 31.6844 32.222 33.97 32.222 37.2944H7.3376C7.3376 33.97 7.12982 31.6844 11.7254 31.0856L5.47982 16.0767C4.08649 16.0767 2.69316 14.6344 2.69316 13.07C2.69316 11.3833 4.04982 10.0267 5.73649 10.0267C7.26427 10.0267 8.74315 11.3833 8.74315 13.07C8.74315 14.0111 8.02204 14.8911 8.02204 14.8911L13.1432 20.3544L13.6932 8.86556C12.3854 8.63334 11.322 7.42334 11.322 5.90778C11.322 4.08667 12.7154 2.69334 14.5365 2.69334C16.2232 2.69334 17.7509 4.05 17.7509 5.90778C17.7509 6.97112 17.152 7.98556 16.272 8.48667L19.7798 18.6189L23.2876 8.48667C22.3954 7.97334 21.8087 6.95889 21.8087 5.90778C21.8087 4.05 23.3365 2.69334 25.0232 2.69334M25.0232 1.67889C22.6887 1.67889 20.7943 3.57334 20.7943 5.90778C20.7943 7.02 21.2832 8.10778 22.0898 8.85334L19.7798 15.5022L17.4698 8.85334C18.2765 8.10778 18.7654 7.02 18.7654 5.90778C18.7654 3.57334 16.8709 1.67889 14.5365 1.67889C12.202 1.67889 10.3076 3.53667 10.3076 5.90778C10.3076 7.55778 11.2487 8.98778 12.642 9.61112L12.2509 17.91L9.3176 14.7811C9.54982 14.3411 9.76982 13.7422 9.76982 13.0822C9.76982 10.9189 7.8876 9.01223 5.74871 9.01223C3.60982 9.01223 1.67871 10.8333 1.67871 13.0822C1.67871 14.9278 3.08427 16.6389 4.77093 17.0178L10.3076 30.3278C6.31093 31.3178 6.32316 34.0311 6.32316 36.9033V37.3189V38.3333H33.2365V36.9033C33.2365 34.0433 33.2487 31.3178 29.252 30.3278L34.7887 17.0178C36.4876 16.6267 37.8809 14.9278 37.8809 13.0822C37.8809 10.8456 36.0598 9.01223 33.8109 9.01223C31.562 9.01223 29.7898 10.9067 29.7898 13.0822C29.7898 13.73 30.0098 14.3289 30.242 14.7811L27.3087 17.91L26.9176 9.59889C28.2987 8.97556 29.252 7.52112 29.252 5.90778C29.252 3.53667 27.3943 1.67889 25.0232 1.67889Z" fill="#383532"/>
</g>
<defs>
<clipPath id="clip0_3540_34494">
<rect width="40" height="40" fill="white"/>
</clipPath>
</defs>
</svg>
