<svg viewBox="0 0 21.8943 21.92" fill="none" xmlns="http://www.w3.org/2000/svg">
<path id="Vector" d="M8.97628 20.8138L1.07628 12.9138C-0.35372 11.4838 -0.35372 10.5438 1.04628 9.08376L3.07628 6.98376C3.47628 6.58376 3.90628 6.35376 4.44628 6.88376C5.07628 7.58376 5.07628 8.91376 5.91628 9.75376C6.98628 10.7538 8.71628 10.7538 9.71628 9.62376C10.7163 8.59376 10.7163 6.99376 9.71628 6.02376C8.84628 5.12376 7.38628 5.29376 6.74628 4.72376C6.14628 4.12376 6.41628 3.69376 6.81628 3.25376L8.94628 1.12376C10.3763 -0.306237 11.3163 -0.306238 12.7463 1.09376L14.9463 3.26376C15.3763 3.69376 15.7463 3.79376 16.1763 3.43376C16.7763 2.86376 16.6063 1.66376 17.5763 0.663762C18.6463 -0.266238 20.1463 -0.206238 21.1463 0.763762C22.1163 1.73376 22.1463 3.26376 21.2163 4.33376C20.2463 5.26376 18.9863 5.10376 18.4463 5.70376C18.0763 6.10376 18.1463 6.50376 18.5763 6.90376L20.7763 9.13376C22.1763 10.5638 22.1763 11.5038 20.7463 12.9038L12.7763 20.8738C11.3463 22.2738 10.4063 22.2738 8.97628 20.8438V20.8138Z" fill="var(--fill-0, white)" fill-opacity="0.5"/>
</svg>
