<svg viewBox="0 0 23.9856 21.4725" fill="none" xmlns="http://www.w3.org/2000/svg">
<path id="Vector" d="M3.0728 11.0025L1.0428 9.2025C-0.427199 7.8325 -0.357199 7.0325 1.3428 6.0025L9.7428 0.7725C11.4428 -0.2575 12.5728 -0.2575 14.2728 0.7725L22.6428 6.0025C24.3428 7.0325 24.4128 7.8725 22.9428 9.2025L21.0128 11.0025C21.0128 8.2325 17.5828 6.5025 12.0428 6.5025C6.5428 6.5025 3.0728 8.2325 3.0728 11.0025ZM5.0028 15.7425V10.8725C5.0028 9.4025 7.7028 8.5025 11.9728 8.5025C16.3028 8.5025 19.0028 9.4025 19.0028 10.8725V15.7425C14.5028 18.7425 13.7728 19.4725 12.0028 19.4725C10.2328 19.4725 9.5028 18.7425 5.0028 15.7425ZM22.0328 21.4725C20.8628 21.4725 20.0028 21.4425 20.3028 20.0425L21.0028 16.8125V11.0125L23.0028 8.6825V16.8125L23.7728 20.0425C24.1028 21.4425 23.1428 21.4725 22.0428 21.4725H22.0328Z" fill="var(--fill-0, white)" fill-opacity="0.5"/>
</svg>
